<?xml version="1.0" encoding="UTF-8"?> <!-- Generator: Adobe Illustrator 24.1.1, SVG Export Plug-In . SVG Version: 6.00 Build 0) --> <svg xmlns="http://www.w3.org/2000/svg" xmlns:xlink="http://www.w3.org/1999/xlink" version="1.1" id="Ebene_1" x="0px" y="0px" viewBox="0 0 780.7 901.4" style="enable-background: new 0 0 780.7 901.4" xml:space="preserve"> <style type="text/css"> .st0{fill:#00B1EB;} </style> <path class="st0" d="M 467.2 603.3 c 0 24.5 -16.3 37.2 -39.3 31 c -20.2 -5.5 -32.2 -19.5 -37.2 -34.5 c -0.4 -1.4 -0.6 -2.8 -0.7 -4.1 c 0 -4.6 3.4 -7 7.8 -5.8 c 3.4 0.9 5.8 3.7 7.8 8.1 c 4 9.6 10.8 17 22.2 20.1 c 14.3 3.9 22.7 -4.2 22.7 -19 c 0 -15.5 -9.5 -28.5 -24.2 -32.4 l -1.4 -0.4 c -5 -1.3 -7.9 -5.4 -7.9 -10.2 s 2.9 -7.4 7.9 -6 l 1.2 0.3 c 12.8 3.4 21.9 -3 21.9 -17.8 c 0 -13.5 -7.9 -24.5 -21.1 -28.1 c -10.8 -2.9 -16.8 1.3 -20.1 8.1 c -1.8 3.5 -4.3 4.9 -7.6 4 c -4.5 -1.2 -7.6 -5.1 -7.6 -9.7 c 0 -1.2 0.4 -2.9 0.8 -4.1 c 4 -11.6 15.8 -19.5 35 -14.3 c 23.1 6.2 37.2 25.7 37.2 47.7 c 0 15 -7.7 23.1 -16.2 26.4 v 0.4 C 456.9 569 467.2 584.2 467.2 603.3 z M 336.3 429.2 h -34.6 c -5 0 -8 -3.2 -8 -8 v -120 c 0 -4.8 3 -8 8 -8 h 34.6 c 26.4 0 42.6 10.4 49.2 31 c 3 8.8 4 17.4 4 37 c 0 19.6 -1 28.2 -4 37 C 378.9 418.8 362.7 429.2 336.3 429.2 z M 371.5 361.2 c 0 -16.2 -1 -24 -3.2 -31 c -4.8 -14.8 -15.2 -20.4 -33.2 -20.4 h -22.4 c -0.8 0 -1.2 0.4 -1.2 1.2 v 100.4 c 0 0.8 0.4 1.2 1.2 1.2 h 22.4 c 18 0 28.4 -5.6 33.2 -20.4 C 370.5 385.2 371.5 377.4 371.5 361.2 z M 351.2 631.2 V 494.6 v -45.2 l 69.4 -12.1 V 226.6 c 0 -0.3 -0.1 -0.7 -0.2 -0.9 c -0.1 -0.1 -0.3 -0.1 -0.6 -0.1 H 152.6 c -0.3 0 -0.7 0.1 -0.9 0.2 c -0.1 0.1 -0.1 0.3 -0.1 0.6 v 267.2 c 0 0.3 0.1 0.7 0.2 0.9 c 0.1 0.1 0.3 0.1 0.6 0.1 h 198.8 l -0.1 12.8 H 152.4 c -8.8 0 -13.6 -7 -13.6 -13.6 V 226.4 c 0 -8.8 7 -13.6 13.6 -13.6 h 267.3 c 8.8 0 13.6 7 13.6 13.6 v 208.7 l 63.8 -11.2 L 643 449.4 V 636 l -145.9 48.3 L 351.2 631.2 z M 524.2 639.2 c 0 5 2.9 7.5 7.7 6.2 l 33.5 -8.9 c 25.6 -6.8 41.2 -21.8 47.6 -44.9 c 3 -9.9 3.9 -19.1 3.9 -39.4 c 0 -20.4 -1 -29 -3.9 -37.4 c -6.4 -19.6 -22 -26.2 -47.6 -19.4 l -33.5 8.9 c -4.8 1.3 -7.7 5.4 -7.7 10.4 V 639.2 z M 364.7 622.3 l 126 43.7 V 485 l -126 -22.8 V 622.3 z M 253.9 413.6 h -48.2 v -0.4 l 41.6 -52.2 c 8.6 -10.6 13.4 -20.8 13.4 -33 c 0 -21.2 -14.6 -37 -38 -37 c -22.6 0 -34.8 13.8 -38 27.8 c -0.2 0.8 -0.4 2.2 -0.4 3 c 0 4.8 3.4 7.8 8.4 7.8 c 3.4 0 6.4 -2.2 7.8 -6.6 c 3 -10 9.6 -16.4 21.6 -16.4 c 13.2 0 21.4 9 21.4 21.4 c 0 8.4 -3.2 15.4 -9.4 23.4 l -46.4 59.2 c -3.6 4.8 -5 7.6 -5 11.2 c 0 4.2 3 7.4 8.2 7.4 h 63 c 5.2 0 8.2 -3.2 8.2 -7.8 S 259.1 413.6 253.9 413.6 z M 542.6 625.4 l 21.7 -5.8 c 17.4 -4.7 27.5 -13.2 32.1 -29.8 c 2.2 -7.9 3.1 -16.2 3.1 -33 s -1 -24.6 -3.1 -31.3 c -4.7 -14.1 -14.7 -17.2 -32.1 -12.6 l -21.7 5.8 c -0.8 0.1 -1.2 0.7 -1.2 1.5 v 104.3 C 541.4 625.3 541.8 625.6 542.6 625.4 z M 780.7 225.4 v 450.7 L 390.4 901.4 L 0.1 676.1 v 0 l -0.1 0 V 225.4 L 390.3 0 L 780.7 225.4 L 780.7 225.4 L 780.7 225.4 z M 23.2 662.3 L 390.1 874 L 757 662.2 V 238.4 L 390.1 26.6 L 23.2 238.4 V 662.3 z"></path> </svg> 