<?xml version="1.0" encoding="UTF-8"?> <!-- Generator: Adobe Illustrator 25.0.1, SVG Export Plug-In . SVG Version: 6.00 Build 0) --> <svg xmlns="http://www.w3.org/2000/svg" xmlns:xlink="http://www.w3.org/1999/xlink" version="1.1" id="layer" x="0px" y="0px" viewBox="0 0 600 196.8" style="enable-background:new 0 0 600 196.8;" xml:space="preserve"> <style type="text/css"> .st0{fill:#003366;} </style> <g> <path class="st0" d="M512.6,58.8c-8.7-6.3-21-10.1-33.2-10.1c-21,0-35.6,12.7-35.6,31c0,5.6,1.4,10.8,4.1,15.3 c3.6,6.1,9.7,9.9,19.6,12.7l11,3c8.9,2.5,13,6.5,13,13c0,8.9-6,13.7-17.4,13.7c-10,0-18-3.2-27.3-8.1l-7.4,15.7 c10,5.8,22.6,9.1,33.9,9.1c24.7,0,41-13.4,41-33.7c0-14.9-8.9-25.4-25.2-29.9l-12-3.3c-8.3-2.3-11-4.9-11-10.1 c0-6.8,5.7-11.5,13.9-11.5c7.4,0,14.2,2.2,23.2,7.7L512.6,58.8z M368.3,112.3l23.3,22.6c-3.1,3.3-8.2,4.9-15,4.9 c-10.2,0-16-5.2-16-14.3C360.5,119.8,363.1,115.5,368.3,112.3 M374.6,92.5c-0.4-0.4-0.9-0.9-1.1-1.1c-6-6.2-7.4-8.5-7.4-12.7 c0-5.6,3.7-9.4,9.2-9.4c5.1,0,8.9,4,8.9,9.7C384,84.6,380.7,89.4,374.6,92.5 M403.2,102.9v1c-0.1,8.4-0.1,9.7-1.3,14.1l-16.6-15.8 l1.3-0.7c6.6-3.5,9.7-5.8,12.6-9c3-3.5,4.9-8.5,4.9-13.8c0-13.4-12-22.8-29-22.8c-16.9,0-28.6,9.9-28.6,24.2c0,3.7,1,8.7,2.3,11.4 c1.6,3.5,4.2,6.2,9.3,10.2c-12,5.6-17.9,13.7-17.9,25c0,17.3,13,27.3,35.9,27.3c7.6,0,14-1,18.7-2.9c2.9-1.1,6.4-3.3,8.6-5.2l6,6.1 H436l-21.3-21.3c3.2-7.2,4.6-15.9,4.6-26.8V103h-16.1V102.9z M281.2,68h12.7c8.4,0,13.4,5.6,13.4,15c0,4.8-0.7,7.6-2.4,10.4 c-2.7,4.2-5.2,5.2-13.3,5.2h-10.4L281.2,68L281.2,68z M261.1,51.7v100.2h20V115h11c11,0,15.3-1.2,19.9-3.3 c10.9-5.2,17.2-15.9,17.2-29.1c0-11.5-5-20.8-14.3-26c-5.6-3.2-10.7-4.9-27.6-4.9L261.1,51.7L261.1,51.7z M196.1,111.4 c2.2-6.6,3.4-11.4,5.3-18.6c1.9-7.5,4.7-19.3,4.7-19.3s3,13.1,4,17.7c2.1,9.7,5.4,20.2,5.4,20.2L196.1,111.4L196.1,111.4z M195.9,51.4l-32.6,100.5h20.9l7-23.8h29.2l7,23.8h21.4L217.5,51.4H195.9z"></path> <path class="st0" d="M287.5,0c-27.7-0.2-54.9,0.9-81.1,3.2C83.8,14,0.9,49.8,0,92.2c-0.5,26.6,30.4,52,87.1,71.7 c56.1,19.4,131,31.1,210.9,32.7c32.7,0.7,64.8-0.4,95.6-3.1c122.6-10.8,205.5-46.6,206.4-89c0-1-0.1-2.1-0.2-3.1l-3.3,0.3 c0.1,0.9,0.2,1.9,0.2,2.8c-0.4,19.9-20.2,38.6-57.4,54.2c-36.9,15.4-87.3,26.3-146,31.5c-30.6,2.7-62.7,3.7-95.2,3.1 c-4.6-0.1-9.1-0.2-13.6-0.4C155,183.2,56.4,141.5,57.4,93.8S158.3,8.6,287.9,4.2L287.5,0z"></path> </g> </svg> 