<?xml version="1.0" encoding="utf-8"?>
<!-- Generator: Adobe Illustrator 23.1.1, SVG Export Plug-In . SVG Version: 6.00 Build 0)  -->
<svg version="1.1" id="Capa_1" xmlns="http://www.w3.org/2000/svg" xmlns:xlink="http://www.w3.org/1999/xlink" x="0px" y="0px"
	 viewBox="0 0 613.4 219.3" style="enable-background:new 0 0 613.4 219.3;" xml:space="preserve">
<style type="text/css">
	.st0{fill:#FFFFFF;}
</style>
<g>
	<path class="st0" d="M610.5,102.2l-99.6-89.9c-3-2.5-6.4-2.9-10-1.4s-5.4,4.3-5.4,8.3l20,64H9.1c-2.7,0-4.9,0.9-6.6,2.6
		C0.9,87.4,0,89.6,0,92.2V127c0,2.7,0.9,4.9,2.6,6.6c1.7,1.7,3.9,2.6,6.6,2.6h506.3l-20,64c0,3.8,1.8,6.6,5.4,8.3
		c3.6,1.5,7,1,10-1.7l99.6-91.1c1.9-1.9,2.9-4.2,2.9-6.8C613.4,106.3,612.4,104.1,610.5,102.2z"/>
</g>
</svg>
