<?xml version="1.0" encoding="UTF-8"?> <!-- Generator: Adobe Illustrator 24.0.2, SVG Export Plug-In . SVG Version: 6.00 Build 0) --> <svg xmlns="http://www.w3.org/2000/svg" xmlns:xlink="http://www.w3.org/1999/xlink" version="1.1" id="Ebene_1" x="0px" y="0px" viewBox="0 0 780.7 901.4" style="enable-background:new 0 0 780.7 901.4;" xml:space="preserve"> <style type="text/css"> .st0{fill:#00B1EB;} </style> <path class="st0" d="M437.5,561.6c-11.5,1.3-24.3,2-38.1,2c-3.9,0-7.7-0.1-11.4-0.2v12c3.8,0.1,7.6,0.2,11.4,0.2 c12.9,0,25.8-0.6,38.1-1.9V561.6z M399.4,273c42.3,0,83.9-6.4,83.9-14.4c0-7.9-41.7-14.4-83.9-14.4c-42.3,0-83.9,6.4-83.9,14.4 C315.4,266.6,357.1,273,399.4,273 M390.3,0L0,225.4v450.7l390.3,225.3l390.3-225.3V225.4L390.3,0z M23.1,238.4L390,26.6l366.9,211.8 v423.7L390,874L23.1,662.2V238.4z M400.8,596l-70.2-192.8c-0.2-0.5-4.9-13-17.2-18.9l-62.1-29.6c-0.7-0.3-6.7-3.1-14.7-3.1 c-3.8,0-7.4,0.6-10.8,1.9l-112.7,41c-0.7,0.2-4.1,1.6-7.1,4.8c-4.5,4.7-5.6,10.9-3.2,17.4l92.5,254.1c1.6,4.3,6.6,11.6,15.7,11.6 c2.1,0,4.3-0.4,6.5-1.2l173-63c0.7-0.2,4.1-1.6,7.1-4.8C402,608.8,403.2,602.6,400.8,596z M305.802,391.215L265,406.1l-14.89-40.817 L305.802,391.215z M386.3,607l-173,63c-0.9,0.3-1.7,0.5-2.4,0.5c-3,0-4.4-3.6-4.4-3.7L114,412.7c-1.5-4,1-6,3.2-6.8l112.7-41 c2.1-0.8,4.3-1.1,6.7-1.1c0.059,0,0.116,0.003,0.174,0.004L255.7,415.8c0.8,2.4,3.1,3.9,5.6,3.9c0.7,0,1.4-0.1,2.2-0.3 l51.484-18.739c2.961,3.434,4.316,6.839,4.316,6.839l70.2,192.8C391,604.2,388.5,606.1,386.3,607z M167.4,496.6 c-2.5,0-4.8-1.5-5.6-4c-1.1-3.1,0.5-6.6,3.6-7.7l138.8-50.5c3.1-1.1,6.6,0.5,7.7,3.6s-0.5,6.6-3.6,7.7l-138.8,50.5 C168.8,496.5,168.1,496.6,167.4,496.6z M177.8,525.1c-2.5,0-4.8-1.5-5.6-4c-1.1-3.1,0.5-6.6,3.6-7.7l138.8-50.5 c3.1-1.1,6.6,0.5,7.7,3.6c1.1,3.1-0.5,6.6-3.6,7.7l-138.8,50.5C179.2,525,178.5,525.1,177.8,525.1z M188.2,553.6 c-2.5,0-4.8-1.5-5.6-4c-1.1-3.1,0.5-6.6,3.6-7.7L325,491.4c3.1-1.1,6.6,0.5,7.7,3.6c1.1,3.1-0.5,6.6-3.6,7.7l-138.8,50.5 C189.6,553.5,188.9,553.6,188.2,553.6z M198.8,582.8c-2.5,0-4.8-1.5-5.6-4c-1.1-3.1,0.5-6.6,3.6-7.7l138.8-50.5 c3.1-1.1,6.6,0.5,7.7,3.6c1.1,3.1-0.5,6.6-3.6,7.7l-138.8,50.5C200.2,582.7,199.5,582.8,198.8,582.8z M671.7,468.8l-174.3-63.4 c0,0-10.7-3.9-14.5,6.8l-63.5,174.2c0,0-3.9,10.7,6.8,14.5l174.3,63.4c0,0,10.7,3.9,14.5-6.8l63.4-174.3 C678.5,483.3,682.3,472.7,671.7,468.8z M610.9,618.3l-163.6-59.6L496,424.9l163.6,59.6L610.9,618.3z M399.4,480.3 c-16.5,0-31.5-1.1-44.7-2.8v12.1c14.2,1.8,29.5,2.7,44.7,2.7c23.6,0,47.3-2.2,67.2-6.5v-12.4C449.1,477.5,426.2,480.3,399.4,480.3z M517.4,275v-14h-0.085c0.119-0.788,0.181-1.588,0.185-2.4c0-25.7-59.4-39.2-118.1-39.2c-58.7,0-118.1,13.5-118.1,39.2 c0,0.812,0.06,1.612,0.177,2.4H281.3v115h12v-15.853c20.295,13.8,63.379,20.953,106.1,20.953c42.62,0,85.656-7.143,106-20.925V376 v43.7h12V376v-32.444c0.058-0.547,0.098-1.097,0.1-1.656h-0.1V275z M399.4,231.4c64.7,0,106.1,16.1,106.1,27.2 s-41.4,27.2-106.1,27.2c-64.8,0-106.1-16.1-106.1-27.2S334.7,231.4,399.4,231.4z M399.4,369.1c-64.8,0-106.1-16.1-106.1-27.2 v-65.053c20.295,13.8,63.379,20.953,106.1,20.953c42.62,0,85.656-7.091,106-20.882v65.915C503.186,353.879,462.31,369.1,399.4,369.1 z"></path> </svg> 