<?xml version="1.0" encoding="UTF-8" standalone="no"?> <!-- Created with Inkscape (http://www.inkscape.org/) --> <svg xmlns:svg="http://www.w3.org/2000/svg" xmlns="http://www.w3.org/2000/svg" version="1.0" width="425" height="205" id="svg3171"><defs id="defs3173"></defs><g transform="translate(-57.712081,-392.51968)" id="layer1"><path d="M 153.90909,553.09476 C 152.41377,552.31269 150.82043,551.65575 149.14158,551.12602 L 139.97564,561.30131 C 141.85053,561.51612 143.97359,562.0083 145.36255,562.97598" id="path219" style="fill:#02a04f;fill-opacity:1;fill-rule:nonzero;stroke:none"></path><path d="M 158.15939,555.47852 L 148.48667,566.28154 C 149.77349,568.09804 150.39081,570.75917 150.39081,573.23469 C 150.39081,580.80932 145.36672,585.9272 138.7556,585.9272 C 132.1424,585.9272 127.26227,580.98659 127.26227,573.23469 C 127.26227,570.10431 128.48856,567.2242 130.22163,565.04066 L 130.20912,565.02397 L 130.43644,564.76745 C 130.53654,564.64858 130.64291,564.53387 130.74927,564.42125 L 143.80049,549.92267 C 142.15918,549.69535 140.47408,549.57022 138.75352,549.57022 C 123.55212,549.57022 111.0765,558.78408 111.0765,572.96566 C 111.0765,587.86883 123.48329,596.12543 138.75352,596.12543 C 154.01545,596.12543 166.5161,586.79478 166.5161,573.13041 C 166.5161,564.2857 163.10418,559.71214 158.15939,555.47852" id="path221" style="fill:#02a04f;fill-opacity:1;fill-rule:nonzero;stroke:none"></path><path d="M 77.710155,560.90297 L 83.418242,560.90297 C 87.320262,560.90297 91.710295,560.90297 91.710295,566.89677 C 91.710295,572.14187 86.586157,573.00945 83.418242,573.00945 L 77.710155,573.00945 L 77.710155,560.90297 z M 61.712081,594.95754 L 77.695557,594.95754 L 77.695557,581.46418 L 87.887525,581.46418 C 98.961671,581.46418 107.47062,575.9855 107.47062,566.66945 C 107.47062,555.68707 101.8251,550.6401 87.987631,550.6401 L 61.712081,550.6401 L 61.712081,594.95754" id="path223" style="fill:#02a04f;fill-opacity:1;fill-rule:nonzero;stroke:none"></path><path d="M 260.40442,594.95754 L 260.40442,550.66304 L 244.4564,550.66929 L 244.4564,594.99507 L 260.40442,594.95754" id="path225" style="fill:#00a650;fill-opacity:1;fill-rule:nonzero;stroke:none"></path><path d="M 269.62036,550.68181 L 269.6725,595.01802 L 285.63512,595.01802 L 285.63512,570.71537 L 299.97103,595.01802 L 316.17766,595.01802 L 316.17766,550.68181 L 300.19001,550.68181 L 300.19001,574.84055 L 285.48079,550.68181 L 269.62036,550.68181" id="path227" style="fill:#00a650;fill-opacity:1;fill-rule:nonzero;stroke:none"></path><path d="M 384.39732,550.7256 L 423.93682,550.7256 L 423.93682,561.05313 L 400.25358,561.05313 L 400.25358,567.78521 L 423.93682,567.78521 L 423.93682,578.07937 L 400.25358,578.07937 L 400.25358,584.66129 L 423.93682,584.66129 L 423.93682,595.0639 L 384.39732,595.0639 L 384.39732,550.7256" id="path229" style="fill:#00a650;fill-opacity:1;fill-rule:nonzero;stroke:none"></path><path d="M 377.86336,568.78418 C 378.57244,576.26913 377.67775,582.4694 371.74234,588.24214 C 366.40757,593.47264 357.98412,596.20468 350.178,596.20468 C 334.83895,596.20468 322.43215,587.66653 322.43215,573.11164 C 322.43215,558.319 334.50944,549.41798 350.31564,549.41798 C 359.04983,549.41798 371.05829,553.32834 374.99159,561.0865 L 359.59832,565.3514 C 357.87776,562.54845 354.88712,561.07607 350.27602,561.07607 C 342.27385,561.07607 338.6784,567.26383 338.6784,573.97088 C 338.6784,580.08564 342.92871,585.83336 350.19677,585.83336 C 355.33342,585.83336 359.63586,582.5278 360.70157,579.13882 L 349.37924,579.08876 L 349.37924,568.78418 L 377.86336,568.78418" id="path231" style="fill:#00a650;fill-opacity:1;fill-rule:nonzero;stroke:none"></path><path d="M 448.47721,560.94051 L 456.26039,560.91548 C 458.19993,560.91548 462.45232,561.43061 462.45232,566.84672 C 462.45232,572.58818 456.04767,573.0032 454.64828,573.0032 L 448.54395,572.99694 L 461.69736,594.95128 L 479.07814,594.95128 L 467.56812,578.54861 C 467.56812,578.54861 478.20848,576.32544 478.20848,566.26069 C 478.20848,555.85808 472.62761,550.6255 458.73591,550.6255 L 432.45619,550.6401 L 432.48122,594.97422 L 448.46052,594.94711 L 448.47721,560.94051" id="path233" style="fill:#00a650;fill-opacity:1;fill-rule:nonzero;stroke:none"></path><path d="M 201.08787,550.66095 L 167.01871,550.65678 L 167.01871,560.89671 L 177.30453,560.93843 L 177.23153,594.96588 L 193.19415,594.96588 L 193.19415,560.93217 L 201.06285,560.93634 L 201.08787,550.66095" id="path235" style="fill:#02a04f;fill-opacity:1;fill-rule:nonzero;stroke:none"></path><path d="M 204.85642,550.66095 L 238.9235,550.65678 L 238.9235,560.89671 L 228.63559,560.93843 L 228.70442,594.96588 L 212.74805,594.96588 L 212.74805,560.93217 L 204.88145,560.93634 L 204.85642,550.66095" id="path237" style="fill:#02a04f;fill-opacity:1;fill-rule:nonzero;stroke:none"></path><path d="M 221.45721,458.36597 C 211.77828,458.36597 203.92419,450.51605 203.92419,440.83503 C 203.92419,440.83503 203.49666,440.87466 203.49666,427.5836 C 203.49666,414.52195 203.92419,414.53654 203.92419,414.53654 C 203.92419,404.85553 211.77828,397.00561 221.45721,397.00561 C 221.45721,397.00561 221.4301,396.51968 234.571,396.51968 C 247.80158,396.51968 247.75153,397.00561 247.75153,397.00561 C 257.43672,397.00561 265.28247,404.85553 265.28247,414.53654 L 265.28247,458.36597 L 221.45721,458.36597" id="path241" style="fill:#00a650;fill-opacity:1;fill-rule:nonzero;stroke:none"></path><path d="M 225.57821,448.5202 C 218.97752,448.5202 213.63023,443.16874 213.63023,436.57013 C 213.63023,436.57013 213.332,436.59724 213.332,427.5398 C 213.332,418.63669 213.63023,418.64503 213.63023,418.64503 C 213.63023,412.04643 218.97752,406.69496 225.57821,406.69496 C 225.57821,406.69496 225.55736,406.36545 234.51052,406.36545 C 243.53042,406.36545 243.50123,406.69496 243.50123,406.69496 C 250.09983,406.69496 255.44712,412.04643 255.44712,418.64503 C 255.44712,418.64503 255.44712,433.31254 255.44712,441.86737 C 255.44712,444.76417 255.20937,448.25534 255.20937,448.25534 C 255.20937,448.25534 251.70569,448.52229 248.80889,448.5202 C 240.16438,448.50769 225.57821,448.5202 225.57821,448.5202" id="path243" style="fill:#80cc27;fill-opacity:1;fill-rule:nonzero;stroke:none"></path><path d="M 221.45721,458.36597 C 211.77828,458.36597 203.92419,450.51605 203.92419,440.83503 C 203.92419,440.83503 203.49666,440.87466 203.49666,427.5836 C 203.49666,414.52195 203.92419,414.53654 203.92419,414.53654 C 203.92419,404.85553 211.77828,397.00561 221.45721,397.00561 C 221.45721,397.00561 221.4301,396.51968 234.571,396.51968 C 247.80158,396.51968 247.75153,397.00561 247.75153,397.00561 C 257.43672,397.00561 265.28247,404.85553 265.28247,414.53654 L 265.28247,458.36597 L 221.45721,458.36597" id="path245" style="fill:#00a650;fill-opacity:1;fill-rule:nonzero;stroke:none"></path><path d="M 225.57821,448.5202 C 218.97752,448.5202 213.63023,443.16874 213.63023,436.57013 C 213.63023,436.57013 213.332,436.59724 213.332,427.5398 C 213.332,418.63669 213.63023,418.64503 213.63023,418.64503 C 213.63023,412.04643 218.97752,406.69496 225.57821,406.69496 C 225.57821,406.69496 225.55736,406.36545 234.51052,406.36545 C 243.53042,406.36545 243.50123,406.69496 243.50123,406.69496 C 250.09983,406.69496 255.44712,412.04643 255.44712,418.64503 C 255.44712,418.64503 255.44712,433.31254 255.44712,441.86737 C 255.44712,444.76417 255.20937,448.25534 255.20937,448.25534 C 255.20937,448.25534 251.70569,448.52229 248.80889,448.5202 C 240.16438,448.50769 225.57821,448.5202 225.57821,448.5202" id="path247" style="fill:#80cc27;fill-opacity:1;fill-rule:nonzero;stroke:none"></path><path d="M 274.3983,414.64916 C 274.3983,404.96815 282.24823,397.12031 291.92715,397.12031 C 291.92715,397.12031 291.8917,396.68652 305.17442,396.68652 C 318.24024,396.68652 318.22773,397.12031 318.22773,397.12031 C 327.90666,397.12031 335.76075,404.96815 335.76075,414.64916 C 335.76075,414.64916 336.24042,414.62205 336.24042,427.76087 C 336.24042,440.99562 335.76075,440.94765 335.76075,440.94765 C 335.76075,450.62867 327.90666,458.47859 318.22773,458.47859 L 274.3983,458.47859 L 274.3983,414.64916" id="path249" style="fill:#00a650;fill-opacity:1;fill-rule:nonzero;stroke:none"></path><path d="M 284.24199,418.76599 C 284.24199,412.16739 289.59554,406.8201 296.19623,406.8201 C 296.19623,406.8201 296.16912,406.52395 305.22447,406.52395 C 314.12759,406.52395 314.11924,406.8201 314.11924,406.8201 C 320.71785,406.8201 326.06723,412.16739 326.06723,418.76599 C 326.06723,418.76599 326.39048,418.74931 326.39048,427.70247 C 326.39048,436.72029 326.06723,436.69109 326.06723,436.69109 C 326.06723,443.2897 320.71785,448.63699 314.11924,448.63699 C 314.11924,448.63699 299.45173,448.64325 290.89065,448.64116 C 288.00011,448.63699 284.51102,448.4055 284.51102,448.4055 C 284.51102,448.4055 284.24199,444.9039 284.24199,441.99667 C 284.25659,433.35634 284.24199,418.76599 284.24199,418.76599" id="path251" style="fill:#80cc27;fill-opacity:1;fill-rule:nonzero;stroke:none"></path><path d="M 318.27778,467.39839 C 327.95671,467.39839 335.80455,475.24622 335.80455,484.93141 C 335.80455,484.93141 336.23834,484.89178 336.23834,498.17659 C 336.23834,511.24033 335.80455,511.22573 335.80455,511.22573 C 335.80455,520.90883 327.95671,528.75666 318.27778,528.75666 C 318.27778,528.75666 318.30281,529.24468 305.16608,529.24468 C 291.93341,529.24468 291.98346,528.75666 291.98346,528.75666 C 282.29828,528.75666 274.45253,520.90883 274.45253,511.22573 L 274.45253,467.39839 L 318.27778,467.39839" id="path253" style="fill:#00a650;fill-opacity:1;fill-rule:nonzero;stroke:none"></path><path d="M 314.15678,477.24624 C 320.75747,477.24624 326.10476,482.59353 326.10476,489.19423 C 326.10476,489.19423 326.40299,489.16711 326.40299,498.22247 C 326.40299,507.12558 326.10476,507.11724 326.10476,507.11724 C 326.10476,513.71585 320.75747,519.06731 314.15678,519.06731 C 314.15678,519.06731 314.17764,519.39682 305.22447,519.39682 C 296.20666,519.39682 296.23585,519.06731 296.23585,519.06731 C 289.63516,519.06731 284.28996,513.71585 284.28996,507.11724 C 284.28996,507.11724 284.2837,492.44973 284.28579,483.8949 C 284.28996,480.99811 284.52354,477.50902 284.52354,477.50902 C 284.52354,477.50902 288.02513,477.23999 290.93027,477.24624 C 299.57061,477.25459 314.15678,477.24624 314.15678,477.24624" id="path255" style="fill:#80cc27;fill-opacity:1;fill-rule:nonzero;stroke:none"></path><path d="M 265.23241,511.16942 C 265.23241,520.8546 257.37832,528.70244 247.70148,528.70244 C 247.70148,528.70244 247.73485,529.13623 234.45004,529.13623 C 221.38839,529.13623 221.4009,528.70244 221.4009,528.70244 C 211.72197,528.70244 203.86997,520.8546 203.86997,511.16942 C 203.86997,511.16942 203.38612,511.2007 203.38612,498.06188 C 203.38612,484.82505 203.86997,484.8751 203.86997,484.8751 C 203.86997,475.18991 211.72197,467.34416 221.4009,467.34416 L 265.23241,467.34416 L 265.23241,511.16942" id="path257" style="fill:#00a650;fill-opacity:1;fill-rule:nonzero;stroke:none"></path><path d="M 255.38247,507.05259 C 255.38247,513.65328 250.02893,518.99849 243.4324,518.99849 C 243.4324,518.99849 243.45952,519.29672 234.40416,519.29672 C 225.50105,519.29672 225.50939,518.99849 225.50939,518.99849 C 218.91078,518.99849 213.56141,513.65328 213.56141,507.05259 C 213.56141,507.05259 213.23189,507.06927 213.23189,498.11611 C 213.23189,489.09829 213.56141,489.12749 213.56141,489.12749 C 213.56141,482.52888 218.91078,477.18159 225.50939,477.18159 C 225.50939,477.18159 240.1769,477.17534 248.73381,477.18159 C 251.62435,477.18159 255.11761,477.41517 255.11761,477.41517 C 255.11761,477.41517 255.38664,480.91886 255.38247,483.82191 C 255.37204,492.46225 255.38247,507.05259 255.38247,507.05259" id="path259" style="fill:#80cc27;fill-opacity:1;fill-rule:nonzero;stroke:none"></path></g></svg> 