<?xml version="1.0" encoding="UTF-8"?> <!-- Generator: Adobe Illustrator 24.1.1, SVG Export Plug-In . SVG Version: 6.00 Build 0) --> <svg xmlns="http://www.w3.org/2000/svg" xmlns:xlink="http://www.w3.org/1999/xlink" version="1.1" id="Ebene_1" x="0px" y="0px" viewBox="0 0 780.6 901.4" style="enable-background:new 0 0 780.6 901.4;" xml:space="preserve"> <style type="text/css"> .st0{fill:#00AFEA;} </style> <path class="st0" d="M390.3,0L0,225.4v450.7l390.3,225.3l390.3-225.3V225.4L390.3,0z M23.1,238.4L390,26.6l366.9,211.8v423.7 L390,874L23.1,662.2V238.4z M463.9,644.8h171.2c6.6,0,12-5.4,12.1-12V362.7c0-6.6-5.4-12-12-12H463.9c-6.6,0-12,5.4-12,12v270.1 C451.9,639.4,457.3,644.8,463.9,644.8z M551,635.2c-8.3,0-15-6.7-15-15s6.8-15,15-15s15,6.7,15,15S559.3,635.2,551,635.2z M464.4,362.8h170.4v238.5H464.4V362.8z M263.5,500.5h-81.4c-3.1,0-5.7,2.6-5.7,5.7v130.4c0,3.1,2.6,5.7,5.7,5.7h81.4 c3.1,0,5.7-2.6,5.7-5.7V506.2C269.2,503.1,266.6,500.5,263.5,500.5z M207.9,504.3h29.6c2.8,0,4.9,2.1,4.9,4.9s-2.1,4.9-4.9,4.9 h-29.6c-2.8,0-4.9-2.1-4.9-4.9C203,506.4,205.1,504.3,207.9,504.3z M222.8,640.2c-4.1,0-7.4-3.3-7.4-7.4c0-4.1,3.3-7.4,7.4-7.4 c3.9,0,7.4,3.3,7.4,7.4S226.9,640.2,222.8,640.2z M261,623.5h-78V518.7h78V623.5z M437,632.4c0,0,0-4.4-4.1-4.4H426 c0,0-11,0-14.3-13.9l-6.8-29c0,0-3.3-13.9-16.5-13.9h-55.8c0,0-13.2,0-16.5,13.9l-7.8,33.4c0,0-2.2,9.5-11.2,9.5h-10.7 c0,0-2.4,0-2.4,2.7v5.8c0,0,0,8.4,13.2,8.4h133.2c0,0,6.5,0,6.5-7.1L437,632.4L437,632.4z M444,567.9H280.3c0,0,0-23.1,0-28.1H444 V567.9z M601.9,276.3v70h-18.8l-0.1-6.2v-61.6H142.9l0.1,261.3h26.6c0,5.7,0,21.6,0,28.1h-28.4c-5.3,0-10.9-0.7-14.3-5.2 c-3.2-3.2-2.5-8.8-2.5-13V270.1c0-6.6,5.4-12,12-12h448.7c5.3,0,11.1,1.1,14.3,5.5C602,266.8,601.9,272.1,601.9,276.3z"></path> </svg> 