<?xml version="1.0" encoding="UTF-8"?> <!-- Generator: Adobe Illustrator 25.0.1, SVG Export Plug-In . SVG Version: 6.00 Build 0) --> <svg xmlns="http://www.w3.org/2000/svg" xmlns:xlink="http://www.w3.org/1999/xlink" version="1.1" id="Ebene_1" x="0px" y="0px" viewBox="0 0 2279.4 1053.9" style="enable-background:new 0 0 2279.4 1053.9;" xml:space="preserve"> <style type="text/css"> .st0{fill-rule:evenodd;clip-rule:evenodd;fill:#C82E33;} </style> <g> <path class="st0" d="M35.5,775.6h177.6v76.9h-82.9v23.7h77v71h-77v29.6h82.9v77H35.5V775.6L35.5,775.6z M485.5,775.6v165.8 c0,77-47.4,112.5-118.4,112.5c-77,0-124.3-35.5-124.3-112.5V775.6h94.7v153.9c0,23.7,0,41.4,29.6,41.4c23.7,0,23.7-17.8,23.7-41.4 V775.6H485.5z M515.1,775.6h118.4c59.2,0,112.5,29.6,112.5,94.7c0,41.4-17.8,59.2-53.3,71v5.9c5.9,0,71,106.6,71,106.6H657.2 l-41.4-88.8h-5.9v88.8h-94.7L515.1,775.6L515.1,775.6z M609.8,899.9h5.9c17.8,0,35.5-5.9,35.5-23.7c0-23.7-17.8-23.7-29.6-23.7 h-11.8V899.9L609.8,899.9z M1053.9,917.7c0,82.9-65.1,136.2-148,136.2c-77,0-142.1-53.3-142.1-136.2c0-88.8,65.1-142.1,142.1-142.1 C988.8,775.6,1053.9,828.9,1053.9,917.7z M858.5,917.7c0,29.6,17.8,53.3,47.4,53.3c29.3,0.1,53.2-23.5,53.3-52.8c0-0.2,0-0.3,0-0.5 c0-29.6-17.8-53.3-53.3-53.3C876.3,864.4,858.5,888.1,858.5,917.7L858.5,917.7z M1077.6,775.6h100.7c88.8,0,153.9,41.4,153.9,142.1 c0,82.9-53.3,136.2-130.3,136.2h-124.3L1077.6,775.6L1077.6,775.6z M1172.3,971h5.9c35.5,0,59.2-17.8,59.2-53.3 c0-35.5-23.7-53.3-59.2-53.3h-5.9V971z M1355.8,775.6h118.4c59.2,0,106.6,29.6,106.6,94.7c0,41.4-11.9,59.2-47.4,71v5.9l71.1,106.6 H1492l-41.4-88.8v88.8h-94.7L1355.8,775.6L1355.8,775.6L1355.8,775.6z M1450.6,899.9h5.9c17.8,0,29.6-5.9,29.6-23.7 c0-23.7-11.8-23.7-29.6-23.7h-5.9V899.9L1450.6,899.9z M1616.3,775.6h94.7v278.3h-94.7V775.6L1616.3,775.6z M2013,775.6 l-106.6,278.3h-77l-106.6-278.3h100.6l35.5,124.3c5.9,17.8,5.9,29.6,5.9,41.4h5.9c0-11.8,0-23.7,5.9-41.4l35.5-124.3H2013 L2013,775.6z M2018.9,775.6h177.6v76.9h-76.9v23.7h71v71h-71v29.6h82.9v77h-183.5L2018.9,775.6L2018.9,775.6z M82.9,479.6 l11.8,11.8c47.4,35.5,106.6,65.1,165.8,65.1c23.7,0,65.1-5.9,65.1-41.4c0-35.5-29.6-35.5-59.2-41.4l-53.3-11.8 C112.5,444,23.7,384.8,23.7,272.4C23.7,94.7,183.6,0,343.4,0c82.9,0,159.9,17.8,230.9,65.1l-71,183.5 c-47.4-29.6-100.7-53.3-153.9-53.3c-23.7,0-59.2,5.9-59.2,41.4c0,23.7,35.5,29.6,53.3,35.5l59.2,11.8 C515.1,307.9,598,367.1,598,491.4c0,177.6-159.9,260.5-319.7,260.5c-88.8,0-195.4-23.7-278.3-65.1L82.9,479.6L82.9,479.6z M645.3,11.8h491.4v201.3h-225v65.1h201.3v195.4H911.8v71h230.9v195.4H645.3V11.8z"></path> <path class="st0" d="M1403.2,11.8l94.7,420.4l106.6-420.4h201.3l100.7,420.4l100.6-420.4h272.3l-254.6,728.2H1788l-82.9-396.7 l-94.7,396.7h-225L1130.8,11.8H1403.2z"></path> </g> </svg> 